<svg width="24" height="25" viewBox="0 0 24 25" fill="none" xmlns="http://www.w3.org/2000/svg">
<g id="Frame">
<g id="Vector">
<path fill-rule="evenodd" clip-rule="evenodd" d="M12 11.2774C12.5523 11.2774 13 11.7251 13 12.2774V12.2874C13 12.8396 12.5523 13.2874 12 13.2874C11.4477 13.2874 11 12.8396 11 12.2874V12.2774C11 11.7251 11.4477 11.2774 12 11.2774Z" fill="url(#paint0_linear_539_972)"/>
<path fill-rule="evenodd" clip-rule="evenodd" d="M14.121 8.74215C14.5116 8.35168 15.1448 8.35178 15.5352 8.74236C16.4726 9.68 16.9992 10.9515 16.9992 12.2774C16.9992 13.6032 16.4726 14.8747 15.5352 15.8124C15.1448 16.2029 14.5116 16.203 14.121 15.8126C13.7304 15.4221 13.7303 14.7889 14.1208 14.3984C14.6832 13.8358 14.9992 13.0729 14.9992 12.2774C14.9992 11.4819 14.6832 10.7189 14.1208 10.1564C13.7303 9.76578 13.7304 9.13261 14.121 8.74215Z" fill="url(#paint1_linear_539_972)"/>
<path fill-rule="evenodd" clip-rule="evenodd" d="M16.9499 5.91327C17.3404 5.52274 17.9736 5.52272 18.3641 5.91324C19.1999 6.74897 19.8628 7.74114 20.3152 8.8331C20.7675 9.92506 21.0003 11.0954 21.0003 12.2774C21.0003 13.4593 20.7675 14.6297 20.3152 15.7216C19.8628 16.8136 19.1999 17.8058 18.3641 18.6415C17.9736 19.032 17.3404 19.032 16.9499 18.6414C16.5594 18.2509 16.5594 17.6178 16.9499 17.2272C17.6 16.5772 18.1156 15.8055 18.4674 14.9562C18.8192 14.1069 19.0003 13.1966 19.0003 12.2774C19.0003 11.3581 18.8192 10.4478 18.4674 9.59849C18.1156 8.74919 17.6 7.9775 16.9499 7.32749C16.5594 6.93697 16.5594 6.30381 16.9499 5.91327Z" fill="url(#paint2_linear_539_972)"/>
<path fill-rule="evenodd" clip-rule="evenodd" d="M9.875 8.74215C10.2656 9.13261 10.2657 9.76578 9.87522 10.1564C9.31281 10.7189 8.99686 11.4819 8.99686 12.2774C8.99686 13.0729 9.31281 13.8358 9.87522 14.3984C10.2657 14.7889 10.2656 15.4221 9.875 15.8126C9.48442 16.203 8.85126 16.2029 8.46079 15.8124C7.52344 14.8747 6.99686 13.6032 6.99686 12.2774C6.99686 10.9515 7.52344 9.68 8.46079 8.74236C8.85126 8.35178 9.48442 8.35168 9.875 8.74215Z" fill="url(#paint3_linear_539_972)"/>
<path fill-rule="evenodd" clip-rule="evenodd" d="M7.04413 5.91327C7.43464 6.30381 7.43463 6.93697 7.04409 7.32749C6.39404 7.9775 5.8784 8.74919 5.52659 9.59849C5.17479 10.4478 4.99371 11.3581 4.99371 12.2774C4.99371 13.1966 5.17479 14.1069 5.52659 14.9562C5.8784 15.8055 6.39404 16.5772 7.04409 17.2272C7.43463 17.6178 7.43464 18.2509 7.04413 18.6414C6.65362 19.032 6.02045 19.032 5.62992 18.6415C4.79414 17.8058 4.13116 16.8136 3.67884 15.7216C3.22652 14.6297 2.99371 13.4593 2.99371 12.2774C2.99371 11.0954 3.22652 9.92506 3.67884 8.8331C4.13116 7.74114 4.79414 6.74897 5.62992 5.91324C6.02045 5.52272 6.65362 5.52274 7.04413 5.91327Z" fill="url(#paint4_linear_539_972)"/>
</g>
</g>
<defs>
<linearGradient id="paint0_linear_539_972" x1="11.997" y1="5.62036" x2="11.997" y2="18.9344" gradientUnits="userSpaceOnUse">
<stop stop-color="#2592F6"/>
<stop offset="1" stop-color="#F38F70"/>
</linearGradient>
<linearGradient id="paint1_linear_539_972" x1="11.997" y1="5.62036" x2="11.997" y2="18.9344" gradientUnits="userSpaceOnUse">
<stop stop-color="#2592F6"/>
<stop offset="1" stop-color="#F38F70"/>
</linearGradient>
<linearGradient id="paint2_linear_539_972" x1="11.997" y1="5.62036" x2="11.997" y2="18.9344" gradientUnits="userSpaceOnUse">
<stop stop-color="#2592F6"/>
<stop offset="1" stop-color="#F38F70"/>
</linearGradient>
<linearGradient id="paint3_linear_539_972" x1="11.997" y1="5.62036" x2="11.997" y2="18.9344" gradientUnits="userSpaceOnUse">
<stop stop-color="#2592F6"/>
<stop offset="1" stop-color="#F38F70"/>
</linearGradient>
<linearGradient id="paint4_linear_539_972" x1="11.997" y1="5.62036" x2="11.997" y2="18.9344" gradientUnits="userSpaceOnUse">
<stop stop-color="#2592F6"/>
<stop offset="1" stop-color="#F38F70"/>
</linearGradient>
</defs>
</svg>
