<svg width="24" height="25" viewBox="0 0 24 25" fill="none" xmlns="http://www.w3.org/2000/svg">
<g id="Frame">
<g id="Vector">
<path fill-rule="evenodd" clip-rule="evenodd" d="M10.31 11.2615C11.5619 10.6356 13.2214 10.2773 15 10.2773C16.7786 10.2773 18.4381 10.6356 19.69 11.2615C20.8821 11.8576 22 12.8661 22 14.2773C22 15.6886 20.8821 16.6971 19.69 17.2931C18.4381 17.9191 16.7786 18.2773 15 18.2773C13.2214 18.2773 11.5619 17.9191 10.31 17.2931C9.1179 16.6971 8 15.6886 8 14.2773C8 12.8661 9.1179 11.8576 10.31 11.2615ZM11.2045 13.0504C10.2251 13.5401 10 14.0316 10 14.2773C10 14.5231 10.2251 15.0146 11.2045 15.5043C12.1241 15.9641 13.4646 16.2773 15 16.2773C16.5354 16.2773 17.8759 15.9641 18.7955 15.5043C19.7749 15.0146 20 14.5231 20 14.2773C20 14.0316 19.7749 13.5401 18.7955 13.0504C17.8759 12.5906 16.5354 12.2773 15 12.2773C13.4646 12.2773 12.1241 12.5906 11.2045 13.0504Z" fill="url(#paint0_linear_539_980)"/>
<path fill-rule="evenodd" clip-rule="evenodd" d="M9 13.2773C9.55228 13.2773 10 13.7251 10 14.2773V18.2773C10 18.5225 10.225 19.0141 11.2045 19.504C12.1242 19.9639 13.4647 20.2773 15 20.2773C16.5353 20.2773 17.8758 19.9639 18.7955 19.504C19.775 19.0141 20 18.5225 20 18.2773V14.2773C20 13.7251 20.4477 13.2773 21 13.2773C21.5523 13.2773 22 13.7251 22 14.2773V18.2773C22 19.6882 20.882 20.6966 19.69 21.2927C18.4382 21.9188 16.7787 22.2773 15 22.2773C13.2213 22.2773 11.5618 21.9188 10.31 21.2927C9.11804 20.6966 8 19.6882 8 18.2773V14.2773C8 13.7251 8.44772 13.2773 9 13.2773Z" fill="url(#paint1_linear_539_980)"/>
<path fill-rule="evenodd" clip-rule="evenodd" d="M5.72255 2.71861C7.75981 2.13026 10.2402 2.13026 12.2775 2.71861C13.2995 3.01377 14.1926 3.45163 14.8506 4.02134C15.5081 4.59065 16 5.36001 16 6.27734C16 7.19468 15.5081 7.96404 14.8506 8.53335C14.1926 9.10306 13.2995 9.54092 12.2775 9.83608C10.2402 10.4244 7.75981 10.4244 5.72255 9.83608C4.70048 9.54092 3.80743 9.10306 3.14943 8.53335C2.4919 7.96404 2 7.19468 2 6.27734C2 5.36001 2.4919 4.59065 3.14943 4.02134C3.80743 3.45163 4.70048 3.01377 5.72255 2.71861ZM11.7225 4.64008C10.0478 4.15643 7.95219 4.15643 6.27745 4.64008C5.44352 4.88092 4.83658 5.20606 4.45857 5.53335C4.0801 5.86104 4 6.12268 4 6.27734C4 6.43201 4.0801 6.69365 4.45857 7.02134C4.83657 7.34863 5.44352 7.67377 6.27745 7.9146C7.95219 8.39826 10.0478 8.39826 11.7225 7.9146C12.5565 7.67377 13.1634 7.34863 13.5414 7.02134C13.9199 6.69365 14 6.43201 14 6.27734C14 6.12268 13.9199 5.86104 13.5414 5.53335C13.1634 5.20606 12.5565 4.88092 11.7225 4.64008Z" fill="url(#paint2_linear_539_980)"/>
<path fill-rule="evenodd" clip-rule="evenodd" d="M3 5.27734C3.55228 5.27734 4 5.72506 4 6.27734V16.2773C4 16.3807 4.0263 16.4923 4.21824 16.6697C4.44123 16.8758 4.8186 17.1004 5.40876 17.3647C5.9128 17.5905 6.13839 18.1821 5.91264 18.6861C5.68689 19.1901 5.09528 19.4157 4.59124 19.19C3.9534 18.9043 3.33078 18.5729 2.86076 18.1385C2.3597 17.6754 2 17.062 2 16.2773V6.27734C2 5.72506 2.44772 5.27734 3 5.27734Z" fill="url(#paint3_linear_539_980)"/>
<path fill-rule="evenodd" clip-rule="evenodd" d="M3 10.2773C3.55228 10.2773 4 10.7251 4 11.2773C4 11.3807 4.0263 11.4923 4.21824 11.6697C4.44123 11.8758 4.8186 12.1004 5.40876 12.3647C5.9128 12.5905 6.13839 13.1821 5.91264 13.6861C5.68689 14.1901 5.09528 14.4157 4.59124 14.19C3.9534 13.9043 3.33078 13.5729 2.86076 13.1385C2.3597 12.6754 2 12.062 2 11.2773C2 10.7251 2.44772 10.2773 3 10.2773Z" fill="url(#paint4_linear_539_980)"/>
</g>
</g>
<defs>
<linearGradient id="paint0_linear_539_980" x1="12" y1="2.27734" x2="12" y2="22.2773" gradientUnits="userSpaceOnUse">
<stop stop-color="#2592F6"/>
<stop offset="1" stop-color="#F38F70"/>
</linearGradient>
<linearGradient id="paint1_linear_539_980" x1="12" y1="2.27734" x2="12" y2="22.2773" gradientUnits="userSpaceOnUse">
<stop stop-color="#2592F6"/>
<stop offset="1" stop-color="#F38F70"/>
</linearGradient>
<linearGradient id="paint2_linear_539_980" x1="12" y1="2.27734" x2="12" y2="22.2773" gradientUnits="userSpaceOnUse">
<stop stop-color="#2592F6"/>
<stop offset="1" stop-color="#F38F70"/>
</linearGradient>
<linearGradient id="paint3_linear_539_980" x1="12" y1="2.27734" x2="12" y2="22.2773" gradientUnits="userSpaceOnUse">
<stop stop-color="#2592F6"/>
<stop offset="1" stop-color="#F38F70"/>
</linearGradient>
<linearGradient id="paint4_linear_539_980" x1="12" y1="2.27734" x2="12" y2="22.2773" gradientUnits="userSpaceOnUse">
<stop stop-color="#2592F6"/>
<stop offset="1" stop-color="#F38F70"/>
</linearGradient>
</defs>
</svg>
