<svg width="24" height="25" viewBox="0 0 24 25" fill="none" xmlns="http://www.w3.org/2000/svg">
<g id="Frame">
<g id="Vector">
<path fill-rule="evenodd" clip-rule="evenodd" d="M9.1716 9.44897C9.92174 8.69882 10.9392 8.2774 12 8.2774C13.0609 8.2774 14.0783 8.69882 14.8285 9.44897C15.5786 10.1991 16 11.2165 16 12.2774C16 13.3383 15.5786 14.3557 14.8285 15.1058C14.0783 15.856 13.0609 16.2774 12 16.2774C10.9392 16.2774 9.92174 15.856 9.1716 15.1058C8.42145 14.3557 8.00003 13.3383 8.00003 12.2774C8.00003 11.2165 8.42145 10.1991 9.1716 9.44897ZM12 10.2774C11.4696 10.2774 10.9609 10.4881 10.5858 10.8632C10.2107 11.2383 10 11.747 10 12.2774C10 12.8078 10.2107 13.3165 10.5858 13.6916C10.9609 14.0667 11.4696 14.2774 12 14.2774C12.5305 14.2774 13.0392 14.0667 13.4142 13.6916C13.7893 13.3165 14 12.8078 14 12.2774C14 11.747 13.7893 11.2383 13.4142 10.8632C13.0392 10.4881 12.5305 10.2774 12 10.2774Z" fill="url(#paint0_linear_539_976)"/>
<path fill-rule="evenodd" clip-rule="evenodd" d="M12 20.2774C12.5523 20.2774 13 20.7251 13 21.2774V21.2874C13 21.8397 12.5523 22.2874 12 22.2874C11.4477 22.2874 11 21.8397 11 21.2874V21.2774C11 20.7251 11.4477 20.2774 12 20.2774Z" fill="url(#paint1_linear_539_976)"/>
<path fill-rule="evenodd" clip-rule="evenodd" d="M3.00003 8.2774C3.55231 8.2774 4.00003 8.72511 4.00003 9.2774V9.2874C4.00003 9.83968 3.55231 10.2874 3.00003 10.2874C2.44774 10.2874 2.00003 9.83968 2.00003 9.2874V9.2774C2.00003 8.72511 2.44774 8.2774 3.00003 8.2774Z" fill="url(#paint2_linear_539_976)"/>
<path fill-rule="evenodd" clip-rule="evenodd" d="M21 8.2774C21.5523 8.2774 22 8.72511 22 9.2774V9.2874C22 9.83968 21.5523 10.2874 21 10.2874C20.4477 10.2874 20 9.83968 20 9.2874V9.2774C20 8.72511 20.4477 8.2774 21 8.2774Z" fill="url(#paint3_linear_539_976)"/>
<path fill-rule="evenodd" clip-rule="evenodd" d="M2.89013 12.2835C3.43907 12.2228 3.93327 12.6186 3.99397 13.1675C4.14229 14.509 4.62758 15.7911 5.40467 16.8946C6.18176 17.998 7.22538 18.8869 8.43841 19.4786C8.9348 19.7207 9.14093 20.3194 8.89881 20.8158C8.6567 21.3122 8.05803 21.5183 7.56164 21.2762C6.04535 20.5366 4.74082 19.4254 3.76946 18.0461C2.7981 16.6668 2.19148 15.0641 2.00608 13.3873C1.94539 12.8384 2.34119 12.3441 2.89013 12.2835Z" fill="url(#paint4_linear_539_976)"/>
<path fill-rule="evenodd" clip-rule="evenodd" d="M21.1099 12.2835C21.6589 12.3441 22.0547 12.8384 21.994 13.3873C21.8086 15.0641 21.202 16.6668 20.2306 18.0461C19.2592 19.4254 17.9547 20.5366 16.4384 21.2762C15.942 21.5183 15.3434 21.3122 15.1012 20.8158C14.8591 20.3194 15.0653 19.7207 15.5616 19.4786C16.7747 18.8869 17.8183 17.998 18.5954 16.8946C19.3725 15.7911 19.8578 14.509 20.0061 13.1675C20.0668 12.6186 20.561 12.2228 21.1099 12.2835Z" fill="url(#paint5_linear_539_976)"/>
<path fill-rule="evenodd" clip-rule="evenodd" d="M11.9 4.24231C10.0529 4.24231 8.26277 4.88146 6.83336 6.05128C6.40596 6.40106 5.77593 6.33813 5.42615 5.91073C5.07637 5.48333 5.13929 4.8533 5.56669 4.50352C7.35346 3.04125 9.59118 2.24231 11.9 2.24231C14.2089 2.24231 16.4466 3.04125 18.2334 4.50352C18.6608 4.8533 18.7237 5.48333 18.3739 5.91073C18.0241 6.33813 17.3941 6.40106 16.9667 6.05128C15.5373 4.88146 13.7471 4.24231 11.9 4.24231Z" fill="url(#paint6_linear_539_976)"/>
</g>
</g>
<defs>
<linearGradient id="paint0_linear_539_976" x1="12" y1="2.24231" x2="12" y2="22.2874" gradientUnits="userSpaceOnUse">
<stop stop-color="#2592F6"/>
<stop offset="1" stop-color="#F38F70"/>
</linearGradient>
<linearGradient id="paint1_linear_539_976" x1="12" y1="2.24231" x2="12" y2="22.2874" gradientUnits="userSpaceOnUse">
<stop stop-color="#2592F6"/>
<stop offset="1" stop-color="#F38F70"/>
</linearGradient>
<linearGradient id="paint2_linear_539_976" x1="12" y1="2.24231" x2="12" y2="22.2874" gradientUnits="userSpaceOnUse">
<stop stop-color="#2592F6"/>
<stop offset="1" stop-color="#F38F70"/>
</linearGradient>
<linearGradient id="paint3_linear_539_976" x1="12" y1="2.24231" x2="12" y2="22.2874" gradientUnits="userSpaceOnUse">
<stop stop-color="#2592F6"/>
<stop offset="1" stop-color="#F38F70"/>
</linearGradient>
<linearGradient id="paint4_linear_539_976" x1="12" y1="2.24231" x2="12" y2="22.2874" gradientUnits="userSpaceOnUse">
<stop stop-color="#2592F6"/>
<stop offset="1" stop-color="#F38F70"/>
</linearGradient>
<linearGradient id="paint5_linear_539_976" x1="12" y1="2.24231" x2="12" y2="22.2874" gradientUnits="userSpaceOnUse">
<stop stop-color="#2592F6"/>
<stop offset="1" stop-color="#F38F70"/>
</linearGradient>
<linearGradient id="paint6_linear_539_976" x1="12" y1="2.24231" x2="12" y2="22.2874" gradientUnits="userSpaceOnUse">
<stop stop-color="#2592F6"/>
<stop offset="1" stop-color="#F38F70"/>
</linearGradient>
</defs>
</svg>
