<svg width="24" height="25" viewBox="0 0 24 25" fill="none" xmlns="http://www.w3.org/2000/svg">
<g id="Frame">
<g id="Vector">
<path fill-rule="evenodd" clip-rule="evenodd" d="M11.9994 2.27736C13.6466 2.27451 15.2691 2.67863 16.7225 3.45381C18.1764 4.22919 19.4161 5.35179 20.3315 6.7218C20.6383 7.18102 20.5148 7.80201 20.0555 8.10884C19.5963 8.41566 18.9753 8.29212 18.6685 7.83291C17.9362 6.7369 16.9444 5.83882 15.7814 5.21852C14.6183 4.59821 13.32 4.27491 12.0018 4.27735L11.9994 4.27736C10.6837 4.27655 9.38813 4.60063 8.22777 5.22081C7.06741 5.84099 6.07813 6.7381 5.34777 7.83247C5.04119 8.29184 4.42026 8.41571 3.96088 8.10913C3.5015 7.80255 3.37764 7.18162 3.68422 6.72225C4.59737 5.35398 5.83425 4.23235 7.28503 3.45694C8.73545 2.68173 10.3548 2.27655 11.9994 2.27736Z" fill="url(#paint0_linear_539_984)"/>
<path fill-rule="evenodd" clip-rule="evenodd" d="M12.0295 2.42905C12.498 2.72149 12.6407 3.33836 12.3483 3.80686C11.6148 4.98197 11.0371 6.24742 10.6298 7.57142C10.4674 8.09928 9.9078 8.39555 9.37993 8.23314C8.85207 8.07074 8.5558 7.51116 8.71821 6.9833C9.1765 5.49369 9.82644 4.06995 10.6517 2.74785C10.9441 2.27934 11.561 2.13661 12.0295 2.42905Z" fill="url(#paint1_linear_539_984)"/>
<path fill-rule="evenodd" clip-rule="evenodd" d="M11.9701 2.42928C12.4385 2.13664 13.0554 2.2791 13.3481 2.74748C14.174 4.06947 14.8247 5.49321 15.2837 6.98292C15.4463 7.51073 15.1502 8.07042 14.6224 8.23303C14.0946 8.39564 13.5349 8.09959 13.3723 7.57179C12.9644 6.2477 12.3861 4.98225 11.6519 3.80724C11.3593 3.33886 11.5017 2.72193 11.9701 2.42928Z" fill="url(#paint2_linear_539_984)"/>
<path fill-rule="evenodd" clip-rule="evenodd" d="M3.96088 16.4456C4.42026 16.139 5.04119 16.2629 5.34777 16.7222C6.07813 17.8166 7.06741 18.7137 8.22777 19.3339C9.38813 19.9541 10.6837 20.2782 11.9994 20.2774H12.0018C13.32 20.2798 14.6183 19.9565 15.7814 19.3362C16.9444 18.7159 17.9362 17.8178 18.6685 16.7218C18.9753 16.2626 19.5963 16.1391 20.0555 16.4459C20.5148 16.7527 20.6383 17.3737 20.3315 17.8329C19.4161 19.2029 18.1764 20.3255 16.7225 21.1009C15.2691 21.8761 13.6467 22.2802 11.9995 22.2774L11.9981 22.2774L12 21.2774L12.0006 22.2774H11.9995C10.3549 22.2782 8.7355 21.873 7.28503 21.0978C5.83425 20.3224 4.59737 19.2007 3.68422 17.8325C3.37764 17.3731 3.5015 16.7522 3.96088 16.4456Z" fill="url(#paint3_linear_539_984)"/>
<path fill-rule="evenodd" clip-rule="evenodd" d="M9.37993 16.3216C9.9078 16.1592 10.4674 16.4554 10.6298 16.9833C11.0371 18.3073 11.6148 19.5727 12.3483 20.7478C12.6407 21.2164 12.498 21.8332 12.0295 22.1257C11.561 22.4181 10.9441 22.2754 10.6517 21.8069C9.82644 20.4848 9.1765 19.061 8.71821 17.5714C8.5558 17.0436 8.85207 16.484 9.37993 16.3216Z" fill="url(#paint4_linear_539_984)"/>
<path fill-rule="evenodd" clip-rule="evenodd" d="M14.6224 16.3217C15.1502 16.4843 15.4463 17.044 15.2837 17.5718C14.8247 19.0615 14.174 20.4852 13.3481 21.8072C13.0554 22.2756 12.4385 22.4181 11.9701 22.1254C11.5017 21.8328 11.3593 21.2159 11.6519 20.7475C12.3861 19.5725 12.9644 18.307 13.3723 16.9829C13.5349 16.4551 14.0946 16.1591 14.6224 16.3217Z" fill="url(#paint5_linear_539_984)"/>
<path fill-rule="evenodd" clip-rule="evenodd" d="M1.75746 9.30721C2.29325 9.17326 2.83619 9.49903 2.97013 10.0348L3.19126 10.9193L3.56366 9.92623C3.71003 9.53593 4.08315 9.27736 4.49999 9.27736C4.91684 9.27736 5.28996 9.53593 5.43632 9.92623L5.80873 10.9193L6.02985 10.0348C6.1638 9.49903 6.70673 9.17326 7.24253 9.30721C7.77832 9.44116 8.10408 9.9841 7.97013 10.5199L6.97013 14.5199C6.86396 14.9446 6.49391 15.2508 6.05686 15.2757C5.61981 15.3006 5.21737 15.0384 5.06366 14.6285L4.49999 13.1254L3.93632 14.6285C3.78261 15.0384 3.38018 15.3006 2.94313 15.2757C2.50608 15.2508 2.13602 14.9446 2.02985 14.5199L1.02985 10.5199C0.895901 9.9841 1.22166 9.44116 1.75746 9.30721Z" fill="url(#paint6_linear_539_984)"/>
<path fill-rule="evenodd" clip-rule="evenodd" d="M16.7575 9.30721C17.2933 9.17326 17.8362 9.49903 17.9701 10.0348L18.1913 10.9193L18.5637 9.92623C18.71 9.53593 19.0831 9.27736 19.5 9.27736C19.9168 9.27736 20.29 9.53593 20.4363 9.92623L20.8087 10.9193L21.0299 10.0348C21.1638 9.49903 21.7067 9.17326 22.2425 9.30721C22.7783 9.44116 23.1041 9.9841 22.9701 10.5199L21.9701 14.5199C21.864 14.9446 21.4939 15.2508 21.0569 15.2757C20.6198 15.3006 20.2174 15.0384 20.0637 14.6285L19.5 13.1254L18.9363 14.6285C18.7826 15.0384 18.3802 15.3006 17.9431 15.2757C17.5061 15.2508 17.136 14.9446 17.0299 14.5199L16.0299 10.5199C15.8959 9.9841 16.2217 9.44116 16.7575 9.30721Z" fill="url(#paint7_linear_539_984)"/>
<path fill-rule="evenodd" clip-rule="evenodd" d="M9.25746 9.30721C9.79325 9.17326 10.3362 9.49903 10.4701 10.0348L10.6913 10.9193L11.0637 9.92623C11.21 9.53593 11.5831 9.27736 12 9.27736C12.4168 9.27736 12.79 9.53593 12.9363 9.92623L13.3087 10.9193L13.5299 10.0348C13.6638 9.49903 14.2067 9.17326 14.7425 9.30721C15.2783 9.44116 15.6041 9.9841 15.4701 10.5199L14.4701 14.5199C14.364 14.9446 13.9939 15.2508 13.5569 15.2757C13.1198 15.3006 12.7174 15.0384 12.5637 14.6285L12 13.1254L11.4363 14.6285C11.2826 15.0384 10.8802 15.3006 10.4431 15.2757C10.0061 15.2508 9.63602 14.9446 9.52985 14.5199L8.52985 10.5199C8.3959 9.9841 8.72166 9.44116 9.25746 9.30721Z" fill="url(#paint8_linear_539_984)"/>
</g>
</g>
<defs>
<linearGradient id="paint0_linear_539_984" x1="12" y1="2.27722" x2="12" y2="22.2775" gradientUnits="userSpaceOnUse">
<stop stop-color="#2592F6"/>
<stop offset="1" stop-color="#F38F70"/>
</linearGradient>
<linearGradient id="paint1_linear_539_984" x1="12" y1="2.27722" x2="12" y2="22.2775" gradientUnits="userSpaceOnUse">
<stop stop-color="#2592F6"/>
<stop offset="1" stop-color="#F38F70"/>
</linearGradient>
<linearGradient id="paint2_linear_539_984" x1="12" y1="2.27722" x2="12" y2="22.2775" gradientUnits="userSpaceOnUse">
<stop stop-color="#2592F6"/>
<stop offset="1" stop-color="#F38F70"/>
</linearGradient>
<linearGradient id="paint3_linear_539_984" x1="12" y1="2.27722" x2="12" y2="22.2775" gradientUnits="userSpaceOnUse">
<stop stop-color="#2592F6"/>
<stop offset="1" stop-color="#F38F70"/>
</linearGradient>
<linearGradient id="paint4_linear_539_984" x1="12" y1="2.27722" x2="12" y2="22.2775" gradientUnits="userSpaceOnUse">
<stop stop-color="#2592F6"/>
<stop offset="1" stop-color="#F38F70"/>
</linearGradient>
<linearGradient id="paint5_linear_539_984" x1="12" y1="2.27722" x2="12" y2="22.2775" gradientUnits="userSpaceOnUse">
<stop stop-color="#2592F6"/>
<stop offset="1" stop-color="#F38F70"/>
</linearGradient>
<linearGradient id="paint6_linear_539_984" x1="12" y1="2.27722" x2="12" y2="22.2775" gradientUnits="userSpaceOnUse">
<stop stop-color="#2592F6"/>
<stop offset="1" stop-color="#F38F70"/>
</linearGradient>
<linearGradient id="paint7_linear_539_984" x1="12" y1="2.27722" x2="12" y2="22.2775" gradientUnits="userSpaceOnUse">
<stop stop-color="#2592F6"/>
<stop offset="1" stop-color="#F38F70"/>
</linearGradient>
<linearGradient id="paint8_linear_539_984" x1="12" y1="2.27722" x2="12" y2="22.2775" gradientUnits="userSpaceOnUse">
<stop stop-color="#2592F6"/>
<stop offset="1" stop-color="#F38F70"/>
</linearGradient>
</defs>
</svg>
