<svg width="42" height="8" viewBox="0 0 42 8" fill="none" xmlns="http://www.w3.org/2000/svg">
<g id="Hianatra">
<path d="M0.277344 4.74853C0.277344 4.21069 0.382991 3.74008 0.594285 3.3367C0.811982 2.92691 1.10972 2.61317 1.48749 2.39548C1.87166 2.17138 2.30385 2.05933 2.78406 2.05933C3.28349 2.05933 3.71248 2.17458 4.07104 2.40508C4.14349 2.45084 4.21191 2.49912 4.27629 2.54993C4.44778 2.68527 4.85859 2.55707 4.85859 2.3386C4.85859 2.2268 4.94923 2.13616 5.06103 2.13616H5.19474C5.38039 2.13616 5.53089 2.28666 5.53089 2.47231V7.04395C5.53089 7.2296 5.38039 7.3801 5.19474 7.3801H5.06879C4.9527 7.3801 4.85859 7.28599 4.85859 7.1699C4.85859 6.94477 4.44841 6.8165 4.27324 6.95793C4.20681 7.01156 4.1362 7.06265 4.06144 7.11118C3.70288 7.34169 3.27388 7.45694 2.77446 7.45694C2.30065 7.45694 1.87166 7.34489 1.48749 7.12079C1.10972 6.89669 0.811982 6.57975 0.594285 6.16996C0.382991 5.76018 0.277344 5.28637 0.277344 4.74853ZM4.85859 4.75813C4.85859 4.33554 4.77215 3.96418 4.59928 3.64404C4.4264 3.32389 4.18949 3.07738 3.88856 2.90451C3.59403 2.73163 3.26748 2.64519 2.90892 2.64519C2.53756 2.64519 2.20461 2.72843 1.91008 2.8949C1.61554 3.06137 1.38184 3.30468 1.20896 3.62483C1.04249 3.93857 0.95925 4.31313 0.95925 4.74853C0.95925 5.17752 1.04249 5.55529 1.20896 5.88184C1.38184 6.20198 1.61554 6.44849 1.91008 6.62137C2.20461 6.78784 2.53756 6.87108 2.90892 6.87108C3.26748 6.87108 3.59403 6.78464 3.88856 6.61176C4.18949 6.43888 4.4264 6.19237 4.59928 5.87223C4.77215 5.55209 4.85859 5.18072 4.85859 4.75813Z" fill="#293F53"/>
<path d="M11.4453 2.04012C12.0727 2.04012 12.585 2.23541 12.9819 2.62598C13.3789 3.01015 13.5774 3.5704 13.5774 4.30673V7.04876C13.5774 7.23176 13.4291 7.3801 13.2461 7.3801C13.0631 7.3801 12.9147 7.23176 12.9147 7.04876V4.38357C12.9147 3.81371 12.7707 3.37832 12.4825 3.07738C12.2008 2.77645 11.8134 2.62598 11.3204 2.62598C10.8146 2.62598 10.4112 2.78605 10.1103 3.10619C9.80933 3.42634 9.65886 3.89695 9.65886 4.51803V7.04395C9.65886 7.2296 9.50836 7.3801 9.32271 7.3801C9.13706 7.3801 8.98656 7.22961 8.98656 7.04395V2.47231C8.98656 2.28666 9.13706 2.13616 9.32271 2.13616H9.4834C9.58031 2.13616 9.65886 2.21472 9.65886 2.31162C9.65886 2.49527 9.96491 2.59124 10.1084 2.47661C10.1916 2.41015 10.2818 2.35109 10.3792 2.29943C10.6929 2.12656 11.0483 2.04012 11.4453 2.04012Z" fill="#293F53"/>
<path d="M16.6778 4.74853C16.6778 4.21069 16.7834 3.74008 16.9947 3.3367C17.2124 2.92691 17.5102 2.61317 17.8879 2.39548C18.2721 2.17138 18.7043 2.05933 19.1845 2.05933C19.6839 2.05933 20.1129 2.17458 20.4715 2.40508C20.5439 2.45084 20.6124 2.49912 20.6767 2.54993C20.8482 2.68527 21.259 2.55707 21.259 2.3386C21.259 2.2268 21.3497 2.13616 21.4615 2.13616H21.5952C21.7808 2.13616 21.9313 2.28666 21.9313 2.47231V7.04395C21.9313 7.2296 21.7808 7.3801 21.5952 7.3801H21.4692C21.3532 7.3801 21.259 7.28599 21.259 7.1699C21.259 6.94477 20.8489 6.8165 20.6737 6.95793C20.6073 7.01156 20.5367 7.06265 20.4619 7.11118C20.1033 7.34169 19.6743 7.45694 19.1749 7.45694C18.7011 7.45694 18.2721 7.34489 17.8879 7.12079C17.5102 6.89669 17.2124 6.57975 16.9947 6.16996C16.7834 5.76018 16.6778 5.28637 16.6778 4.74853ZM21.259 4.75813C21.259 4.33554 21.1726 3.96418 20.9997 3.64404C20.8269 3.32389 20.5899 3.07738 20.289 2.90451C19.9945 2.73163 19.6679 2.64519 19.3094 2.64519C18.938 2.64519 18.6051 2.72843 18.3105 2.8949C18.016 3.06137 17.7823 3.30468 17.6094 3.62483C17.4429 3.93857 17.3597 4.31313 17.3597 4.74853C17.3597 5.17752 17.4429 5.55529 17.6094 5.88184C17.7823 6.20198 18.016 6.44849 18.3105 6.62137C18.6051 6.78784 18.938 6.87108 19.3094 6.87108C19.6679 6.87108 19.9945 6.78464 20.289 6.61176C20.5899 6.43888 20.8269 6.19237 20.9997 5.87223C21.1726 5.55209 21.259 5.18072 21.259 4.75813Z" fill="#293F53"/>
<path d="M26.9813 2.70281C26.5835 2.70281 26.261 3.02531 26.261 3.42314V5.95867C26.261 6.27881 26.3218 6.49971 26.4435 6.62137C26.5651 6.74302 26.7796 6.80385 27.087 6.80385H27.4135C27.5727 6.80385 27.7017 6.93285 27.7017 7.09198C27.7017 7.2511 27.5727 7.3801 27.4135 7.3801H26.9813C26.5075 7.3801 26.1554 7.27126 25.9249 7.05356C25.6944 6.82946 25.5791 6.4645 25.5791 5.95867V3.06778C25.5791 2.86621 25.4157 2.70281 25.2141 2.70281H25.1325C24.976 2.70281 24.8492 2.57597 24.8492 2.41949C24.8492 2.26301 24.976 2.13616 25.1325 2.13616H25.2141C25.4157 2.13616 25.5791 1.97276 25.5791 1.7712V1.16133C25.5791 0.973024 25.7318 0.820374 25.9201 0.820374C26.1084 0.820374 26.261 0.973024 26.261 1.16133V1.47827C26.261 1.84161 26.5556 2.13616 26.9189 2.13616H27.4183C27.5748 2.13616 27.7017 2.26301 27.7017 2.41949C27.7017 2.57597 27.5748 2.70281 27.4183 2.70281H26.9813Z" fill="#293F53"/>
<path d="M31.4036 2.30105C31.4036 2.47865 31.7239 2.57388 31.8606 2.46057C31.9274 2.40527 31.9991 2.35476 32.0759 2.30904C32.2986 2.17914 32.5565 2.0963 32.8498 2.06052C33.042 2.03707 33.1996 2.19707 33.1996 2.39068V2.55876C33.1996 2.65953 33.1179 2.74123 33.0171 2.74123C32.5305 2.74123 32.1399 2.87249 31.8454 3.13501C31.5508 3.39753 31.4036 3.83612 31.4036 4.4508V7.04395C31.4036 7.22961 31.2531 7.3801 31.0674 7.3801C30.8818 7.3801 30.7313 7.22961 30.7313 7.04396V2.47231C30.7313 2.28666 30.8818 2.13616 31.0674 2.13616H31.2387C31.3298 2.13616 31.4036 2.20999 31.4036 2.30105Z" fill="#293F53"/>
<path d="M35.8245 4.74853C35.8245 4.21069 35.9301 3.74008 36.1414 3.3367C36.3591 2.92691 36.6569 2.61317 37.0346 2.39548C37.4188 2.17138 37.851 2.05933 38.3312 2.05933C38.8306 2.05933 39.2596 2.17458 39.6182 2.40508C39.6906 2.45084 39.759 2.49913 39.8234 2.54993C39.9949 2.68527 40.4057 2.55707 40.4057 2.3386C40.4057 2.2268 40.4964 2.13616 40.6082 2.13616H40.7419C40.9275 2.13616 41.078 2.28666 41.078 2.47231V7.04395C41.078 7.2296 40.9275 7.3801 40.7419 7.3801H40.6159C40.4998 7.3801 40.4057 7.28599 40.4057 7.1699C40.4057 6.94477 39.9955 6.8165 39.8204 6.95792C39.7539 7.01156 39.6833 7.06265 39.6086 7.11118C39.25 7.34169 38.821 7.45694 38.3216 7.45694C37.8478 7.45694 37.4188 7.34489 37.0346 7.12079C36.6569 6.89669 36.3591 6.57975 36.1414 6.16996C35.9301 5.76018 35.8245 5.28637 35.8245 4.74853ZM40.4057 4.75813C40.4057 4.33554 40.3193 3.96418 40.1464 3.64404C39.9735 3.32389 39.7366 3.07738 39.4357 2.90451C39.1412 2.73163 38.8146 2.64519 38.4561 2.64519C38.0847 2.64519 37.7517 2.72843 37.4572 2.8949C37.1627 3.06137 36.929 3.30468 36.7561 3.62483C36.5896 3.93857 36.5064 4.31313 36.5064 4.74853C36.5064 5.17752 36.5896 5.55529 36.7561 5.88184C36.929 6.20198 37.1627 6.44849 37.4572 6.62137C37.7517 6.78784 38.0847 6.87108 38.4561 6.87108C38.8146 6.87108 39.1412 6.78464 39.4357 6.61176C39.7366 6.43888 39.9735 6.19237 40.1464 5.87223C40.3193 5.55209 40.4057 5.18072 40.4057 4.75813Z" fill="#293F53"/>
</g>
</svg>
