<svg width="27" height="27" viewBox="0 0 27 27" fill="none" xmlns="http://www.w3.org/2000/svg">
<path id="Subtract" fill-rule="evenodd" clip-rule="evenodd" d="M13.1387 26.2773H13.1387V15.9964H7.26694V21.2931C7.26694 22.2826 6.4648 23.0848 5.47531 23.0848C4.48581 23.0848 3.68367 22.2826 3.68367 21.2931V4.01573C1.40293 6.37896 0 9.59498 0 13.1387C0 20.395 5.88238 26.2773 13.1387 26.2773ZM7.26694 12.4131V1.79165C7.26694 1.65822 7.25236 1.52819 7.22469 1.40308C9.00221 0.505556 11.0114 0 13.1387 0C16.4261 0 19.4316 1.20738 21.7358 3.20291C20.8374 3.29946 20.1378 4.06013 20.1378 4.9842C20.1378 5.97369 20.94 6.77584 21.9295 6.77584C22.8076 6.77584 23.5382 6.14406 23.6915 5.31025C25.3161 7.49668 26.2773 10.2054 26.2773 13.1387C26.2773 16.097 25.2996 18.827 23.6496 21.0231V9.91371C23.6496 8.92422 22.8475 8.12207 21.858 8.12207C20.8685 8.12207 20.0664 8.92422 20.0664 9.91371V23.2913C20.0664 23.6071 20.1481 23.9038 20.2915 24.1615C19.2025 24.8696 18.0019 25.4207 16.722 25.7828V6.80825C16.722 5.81876 15.9198 5.01661 14.9303 5.01661C13.9409 5.01661 13.1387 5.81876 13.1387 6.80825V12.4131H7.26694Z" fill="#2592F6"/>
</svg>
